<mxfile host="app.diagrams.net" modified="2023-06-04T15:09:55.589Z" agent="Mozilla/5.0 (Windows NT 10.0; Win64; x64) AppleWebKit/537.36 (KHTML, like Gecko) Chrome/114.0.0.0 Safari/537.36" etag="kKIYeawvxMx6z_RroWN0" version="21.2.1" type="device">
  <diagram id="C5RBs43oDa-KdzZeNtuy" name="Page-1">
    <mxGraphModel dx="3200" dy="2566" grid="1" gridSize="10" guides="1" tooltips="1" connect="1" arrows="1" fold="1" page="1" pageScale="1" pageWidth="827" pageHeight="1169" math="0" shadow="0">
      <root>
        <mxCell id="WIyWlLk6GJQsqaUBKTNV-0" />
        <mxCell id="WIyWlLk6GJQsqaUBKTNV-1" parent="WIyWlLk6GJQsqaUBKTNV-0" />
        <mxCell id="5H3DimfxdCsXYtSMc6TK-84" value="ServerRMI" style="shape=folder;fontStyle=1;spacingTop=10;tabWidth=40;tabHeight=14;tabPosition=left;html=1;whiteSpace=wrap;" vertex="1" parent="WIyWlLk6GJQsqaUBKTNV-1">
          <mxGeometry x="-123" y="306" width="330" height="204" as="geometry" />
        </mxCell>
        <mxCell id="5H3DimfxdCsXYtSMc6TK-83" value="ServerSocket" style="shape=folder;fontStyle=1;spacingTop=10;tabWidth=40;tabHeight=14;tabPosition=left;html=1;whiteSpace=wrap;" vertex="1" parent="WIyWlLk6GJQsqaUBKTNV-1">
          <mxGeometry x="266.5" y="306" width="237" height="204" as="geometry" />
        </mxCell>
        <mxCell id="5H3DimfxdCsXYtSMc6TK-82" value="ClientSocket" style="shape=folder;fontStyle=1;spacingTop=10;tabWidth=40;tabHeight=14;tabPosition=left;html=1;whiteSpace=wrap;" vertex="1" parent="WIyWlLk6GJQsqaUBKTNV-1">
          <mxGeometry x="290" y="-120" width="309" height="235" as="geometry" />
        </mxCell>
        <mxCell id="5H3DimfxdCsXYtSMc6TK-79" value="ClientRMI" style="shape=folder;fontStyle=1;spacingTop=10;tabWidth=40;tabHeight=14;tabPosition=left;html=1;whiteSpace=wrap;" vertex="1" parent="WIyWlLk6GJQsqaUBKTNV-1">
          <mxGeometry x="-70" y="-150" width="330" height="320" as="geometry" />
        </mxCell>
        <mxCell id="5H3DimfxdCsXYtSMc6TK-0" value="&lt;p style=&quot;margin:0px;margin-top:4px;text-align:center;&quot;&gt;&lt;i&gt;&amp;lt;&amp;lt;interface&amp;gt;&amp;gt;&lt;/i&gt;&lt;br/&gt;&lt;b&gt;AbstractClient&lt;/b&gt;&lt;/p&gt;&lt;hr size=&quot;1&quot;/&gt;" style="verticalAlign=top;align=left;overflow=fill;fontSize=14;fontFamily=Helvetica;html=1;rounded=0;shadow=0;comic=0;labelBackgroundColor=none;strokeWidth=1;" vertex="1" parent="WIyWlLk6GJQsqaUBKTNV-1">
          <mxGeometry x="341" y="-180" width="161" height="35" as="geometry" />
        </mxCell>
        <mxCell id="5H3DimfxdCsXYtSMc6TK-1" value="&lt;p style=&quot;margin:0px;margin-top:4px;text-align:center;&quot;&gt;&lt;i&gt;&amp;lt;&amp;lt;interface&amp;gt;&amp;gt;&lt;/i&gt;&lt;br/&gt;&lt;b&gt;Client&lt;/b&gt;&lt;/p&gt;&lt;hr size=&quot;1&quot;/&gt;" style="verticalAlign=top;align=left;overflow=fill;fontSize=14;fontFamily=Helvetica;html=1;rounded=0;shadow=0;comic=0;labelBackgroundColor=none;strokeWidth=1;" vertex="1" parent="WIyWlLk6GJQsqaUBKTNV-1">
          <mxGeometry x="112" y="44" width="95" height="35" as="geometry" />
        </mxCell>
        <mxCell id="5H3DimfxdCsXYtSMc6TK-2" value="&lt;p style=&quot;margin:0px;margin-top:4px;text-align:center;&quot;&gt;&lt;b&gt;ClientApp&lt;/b&gt;&lt;/p&gt;&lt;hr size=&quot;1&quot;/&gt;" style="verticalAlign=top;align=left;overflow=fill;fontSize=14;fontFamily=Helvetica;html=1;rounded=0;shadow=0;comic=0;labelBackgroundColor=none;strokeWidth=1;" vertex="1" parent="WIyWlLk6GJQsqaUBKTNV-1">
          <mxGeometry x="97" y="-89" width="126" height="30" as="geometry" />
        </mxCell>
        <mxCell id="5H3DimfxdCsXYtSMc6TK-3" value="&lt;p style=&quot;margin:0px;margin-top:4px;text-align:center;&quot;&gt;&lt;b&gt;ClientAppSocket&lt;/b&gt;&lt;/p&gt;&lt;hr size=&quot;1&quot;/&gt;" style="verticalAlign=top;align=left;overflow=fill;fontSize=14;fontFamily=Helvetica;html=1;rounded=0;shadow=0;comic=0;labelBackgroundColor=none;strokeWidth=1;" vertex="1" parent="WIyWlLk6GJQsqaUBKTNV-1">
          <mxGeometry x="341" y="-70" width="179" height="30" as="geometry" />
        </mxCell>
        <mxCell id="5H3DimfxdCsXYtSMc6TK-4" value="&lt;p style=&quot;margin:0px;margin-top:4px;text-align:center;&quot;&gt;&lt;b&gt;ClientHandlerSocket&lt;/b&gt;&lt;/p&gt;&lt;hr size=&quot;1&quot;/&gt;" style="verticalAlign=top;align=left;overflow=fill;fontSize=14;fontFamily=Helvetica;html=1;rounded=0;shadow=0;comic=0;labelBackgroundColor=none;strokeWidth=1;" vertex="1" parent="WIyWlLk6GJQsqaUBKTNV-1">
          <mxGeometry x="281" y="371" width="208" height="30" as="geometry" />
        </mxCell>
        <mxCell id="5H3DimfxdCsXYtSMc6TK-5" value="&lt;p style=&quot;margin:0px;margin-top:4px;text-align:center;&quot;&gt;&lt;b&gt;Lobby&lt;/b&gt;&lt;/p&gt;&lt;hr size=&quot;1&quot;/&gt;" style="verticalAlign=top;align=left;overflow=fill;fontSize=14;fontFamily=Helvetica;html=1;rounded=0;shadow=0;comic=0;labelBackgroundColor=none;strokeWidth=1;" vertex="1" parent="WIyWlLk6GJQsqaUBKTNV-1">
          <mxGeometry x="315" y="720" width="98" height="30" as="geometry" />
        </mxCell>
        <mxCell id="5H3DimfxdCsXYtSMc6TK-6" value="&lt;p style=&quot;margin:0px;margin-top:4px;text-align:center;&quot;&gt;&lt;b&gt;RMIPlayer&lt;/b&gt;&lt;/p&gt;&lt;hr size=&quot;1&quot;/&gt;" style="verticalAlign=top;align=left;overflow=fill;fontSize=14;fontFamily=Helvetica;html=1;rounded=0;shadow=0;comic=0;labelBackgroundColor=none;strokeWidth=1;" vertex="1" parent="WIyWlLk6GJQsqaUBKTNV-1">
          <mxGeometry x="-119.5" y="400.5" width="125" height="30" as="geometry" />
        </mxCell>
        <mxCell id="5H3DimfxdCsXYtSMc6TK-7" value="&lt;p style=&quot;margin:0px;margin-top:4px;text-align:center;&quot;&gt;&lt;b&gt;RemoteHandler&lt;/b&gt;&lt;/p&gt;&lt;hr size=&quot;1&quot;/&gt;" style="verticalAlign=top;align=left;overflow=fill;fontSize=14;fontFamily=Helvetica;html=1;rounded=0;shadow=0;comic=0;labelBackgroundColor=none;strokeWidth=1;" vertex="1" parent="WIyWlLk6GJQsqaUBKTNV-1">
          <mxGeometry x="548" y="540" width="168" height="30" as="geometry" />
        </mxCell>
        <mxCell id="5H3DimfxdCsXYtSMc6TK-8" value="&lt;p style=&quot;margin:0px;margin-top:4px;text-align:center;&quot;&gt;&lt;b&gt;RemotePlayer&lt;/b&gt;&lt;/p&gt;&lt;hr size=&quot;1&quot;/&gt;" style="verticalAlign=top;align=left;overflow=fill;fontSize=14;fontFamily=Helvetica;html=1;rounded=0;shadow=0;comic=0;labelBackgroundColor=none;strokeWidth=1;" vertex="1" parent="WIyWlLk6GJQsqaUBKTNV-1">
          <mxGeometry x="-110" y="540" width="155" height="30" as="geometry" />
        </mxCell>
        <mxCell id="5H3DimfxdCsXYtSMc6TK-9" value="&lt;p style=&quot;margin:0px;margin-top:4px;text-align:center;&quot;&gt;&lt;i&gt;&amp;lt;&amp;lt;interface&amp;gt;&amp;gt;&lt;/i&gt;&lt;br/&gt;&lt;b&gt;Server&lt;/b&gt;&lt;/p&gt;&lt;hr size=&quot;1&quot;/&gt;" style="verticalAlign=top;align=left;overflow=fill;fontSize=14;fontFamily=Helvetica;html=1;rounded=0;shadow=0;comic=0;labelBackgroundColor=none;strokeWidth=1;" vertex="1" parent="WIyWlLk6GJQsqaUBKTNV-1">
          <mxGeometry x="97" y="330" width="99" height="35" as="geometry" />
        </mxCell>
        <mxCell id="5H3DimfxdCsXYtSMc6TK-10" value="&lt;p style=&quot;margin:0px;margin-top:4px;text-align:center;&quot;&gt;&lt;b&gt;ServerApp&lt;/b&gt;&lt;/p&gt;&lt;hr size=&quot;1&quot;/&gt;" style="verticalAlign=top;align=left;overflow=fill;fontSize=14;fontFamily=Helvetica;html=1;rounded=0;shadow=0;comic=0;labelBackgroundColor=none;strokeWidth=1;" vertex="1" parent="WIyWlLk6GJQsqaUBKTNV-1">
          <mxGeometry x="-18" y="670" width="130" height="30" as="geometry" />
        </mxCell>
        <mxCell id="5H3DimfxdCsXYtSMc6TK-11" value="&lt;p style=&quot;margin:0px;margin-top:4px;text-align:center;&quot;&gt;&lt;b&gt;ServerImpl&lt;/b&gt;&lt;/p&gt;&lt;hr size=&quot;1&quot;/&gt;" style="verticalAlign=top;align=left;overflow=fill;fontSize=14;fontFamily=Helvetica;html=1;rounded=0;shadow=0;comic=0;labelBackgroundColor=none;strokeWidth=1;" vertex="1" parent="WIyWlLk6GJQsqaUBKTNV-1">
          <mxGeometry x="65" y="380" width="131" height="30" as="geometry" />
        </mxCell>
        <mxCell id="5H3DimfxdCsXYtSMc6TK-12" value="&lt;p style=&quot;margin:0px;margin-top:4px;text-align:center;&quot;&gt;&lt;b&gt;SocketPlayer&lt;/b&gt;&lt;/p&gt;&lt;hr size=&quot;1&quot;/&gt;" style="verticalAlign=top;align=left;overflow=fill;fontSize=14;fontFamily=Helvetica;html=1;rounded=0;shadow=0;comic=0;labelBackgroundColor=none;strokeWidth=1;" vertex="1" parent="WIyWlLk6GJQsqaUBKTNV-1">
          <mxGeometry x="312" y="440" width="150" height="30" as="geometry" />
        </mxCell>
        <mxCell id="5H3DimfxdCsXYtSMc6TK-13" value="" style="html=1;rounded=1;edgeStyle=orthogonalEdgeStyle;dashed=1;startArrow=none;endArrow=block;endSize=12;strokeColor=#008200;exitX=1.000;exitY=0.500;exitDx=0;exitDy=0;" edge="1" parent="WIyWlLk6GJQsqaUBKTNV-1" source="5H3DimfxdCsXYtSMc6TK-2" target="5H3DimfxdCsXYtSMc6TK-0">
          <mxGeometry width="50" height="50" relative="1" as="geometry">
            <Array as="points">
              <mxPoint x="300" y="-75" />
              <mxPoint x="300" y="-80" />
              <mxPoint x="397" y="-80" />
            </Array>
          </mxGeometry>
        </mxCell>
        <mxCell id="5H3DimfxdCsXYtSMc6TK-14" value="" style="html=1;rounded=1;edgeStyle=orthogonalEdgeStyle;dashed=1;startArrow=none;endArrow=block;endSize=12;strokeColor=#008200;exitX=0.500;exitY=1.001;exitDx=0;exitDy=0;entryX=0.500;entryY=0.001;entryDx=0;entryDy=0;" edge="1" parent="WIyWlLk6GJQsqaUBKTNV-1" source="5H3DimfxdCsXYtSMc6TK-2" target="5H3DimfxdCsXYtSMc6TK-1">
          <mxGeometry width="50" height="50" relative="1" as="geometry">
            <Array as="points" />
          </mxGeometry>
        </mxCell>
        <mxCell id="5H3DimfxdCsXYtSMc6TK-15" value="" style="html=1;rounded=1;edgeStyle=orthogonalEdgeStyle;dashed=0;startArrow=diamondThinstartSize=12;endArrow=openThin;endSize=12;strokeColor=#595959;exitX=0.000;exitY=0.500;exitDx=0;exitDy=0;" edge="1" parent="WIyWlLk6GJQsqaUBKTNV-1" source="5H3DimfxdCsXYtSMc6TK-2" target="5H3DimfxdCsXYtSMc6TK-9">
          <mxGeometry width="50" height="50" relative="1" as="geometry">
            <Array as="points">
              <mxPoint x="50" y="-75" />
              <mxPoint x="50" y="280" />
              <mxPoint x="147" y="280" />
            </Array>
          </mxGeometry>
        </mxCell>
        <mxCell id="5H3DimfxdCsXYtSMc6TK-16" value="1" style="edgeLabel;resizable=0;html=1;align=left;verticalAlign=top;strokeColor=default;" vertex="1" connectable="0" parent="5H3DimfxdCsXYtSMc6TK-15">
          <mxGeometry x="81" y="-75" as="geometry" />
        </mxCell>
        <mxCell id="5H3DimfxdCsXYtSMc6TK-17" value="1" style="edgeLabel;resizable=0;html=1;align=left;verticalAlign=top;strokeColor=default;" vertex="1" connectable="0" parent="5H3DimfxdCsXYtSMc6TK-15">
          <mxGeometry x="160" y="140" as="geometry" />
        </mxCell>
        <mxCell id="5H3DimfxdCsXYtSMc6TK-18" value="server" style="edgeLabel;resizable=0;html=1;align=left;verticalAlign=top;strokeColor=default;" vertex="1" connectable="0" parent="5H3DimfxdCsXYtSMc6TK-15">
          <mxGeometry x="-68" y="86" as="geometry" />
        </mxCell>
        <mxCell id="5H3DimfxdCsXYtSMc6TK-20" value="" style="html=1;rounded=1;edgeStyle=orthogonalEdgeStyle;dashed=0;startArrow=diamondThinstartSize=12;endArrow=openThin;endSize=12;strokeColor=#595959;exitX=0.103;exitY=1.002;exitDx=0;exitDy=0;entryX=0.903;entryY=0.002;entryDx=0;entryDy=0;" edge="1" parent="WIyWlLk6GJQsqaUBKTNV-1" source="5H3DimfxdCsXYtSMc6TK-4" target="5H3DimfxdCsXYtSMc6TK-5">
          <mxGeometry width="50" height="50" relative="1" as="geometry">
            <Array as="points" />
          </mxGeometry>
        </mxCell>
        <mxCell id="5H3DimfxdCsXYtSMc6TK-21" value="1" style="edgeLabel;resizable=0;html=1;align=left;verticalAlign=top;strokeColor=default;" vertex="1" connectable="0" parent="5H3DimfxdCsXYtSMc6TK-20">
          <mxGeometry x="303" y="422" as="geometry" />
        </mxCell>
        <mxCell id="5H3DimfxdCsXYtSMc6TK-22" value="1" style="edgeLabel;resizable=0;html=1;align=left;verticalAlign=top;strokeColor=default;" vertex="1" connectable="0" parent="5H3DimfxdCsXYtSMc6TK-20">
          <mxGeometry x="291" y="404" as="geometry" />
        </mxCell>
        <mxCell id="5H3DimfxdCsXYtSMc6TK-23" value="lobby" style="edgeLabel;resizable=0;html=1;align=left;verticalAlign=top;strokeColor=default;" vertex="1" connectable="0" parent="5H3DimfxdCsXYtSMc6TK-20">
          <mxGeometry x="296" y="487" as="geometry" />
        </mxCell>
        <mxCell id="5H3DimfxdCsXYtSMc6TK-24" value="" style="html=1;rounded=1;edgeStyle=orthogonalEdgeStyle;dashed=0;startArrow=none;endArrow=block;endSize=12;strokeColor=#000082;exitX=1.000;exitY=0.500;exitDx=0;exitDy=0;entryX=0.000;entryY=0.500;entryDx=0;entryDy=0;" edge="1" parent="WIyWlLk6GJQsqaUBKTNV-1" source="5H3DimfxdCsXYtSMc6TK-4" target="5H3DimfxdCsXYtSMc6TK-7">
          <mxGeometry width="50" height="50" relative="1" as="geometry">
            <Array as="points" />
          </mxGeometry>
        </mxCell>
        <mxCell id="5H3DimfxdCsXYtSMc6TK-27" value="" style="html=1;rounded=1;edgeStyle=orthogonalEdgeStyle;dashed=0;startArrow=diamondThinstartSize=12;endArrow=openThin;endSize=12;strokeColor=#595959;exitX=0.750;exitY=1.001;exitDx=0;exitDy=0;" edge="1" parent="WIyWlLk6GJQsqaUBKTNV-1" source="5H3DimfxdCsXYtSMc6TK-4" target="5H3DimfxdCsXYtSMc6TK-12">
          <mxGeometry width="50" height="50" relative="1" as="geometry">
            <Array as="points">
              <mxPoint x="437" y="420" />
              <mxPoint x="437" y="420" />
            </Array>
          </mxGeometry>
        </mxCell>
        <mxCell id="5H3DimfxdCsXYtSMc6TK-28" value="1" style="edgeLabel;resizable=0;html=1;align=left;verticalAlign=top;strokeColor=default;" vertex="1" connectable="0" parent="5H3DimfxdCsXYtSMc6TK-27">
          <mxGeometry x="425" y="501" as="geometry" />
        </mxCell>
        <mxCell id="5H3DimfxdCsXYtSMc6TK-29" value="1" style="edgeLabel;resizable=0;html=1;align=left;verticalAlign=top;strokeColor=default;" vertex="1" connectable="0" parent="5H3DimfxdCsXYtSMc6TK-27">
          <mxGeometry x="-780" y="350" as="geometry">
            <mxPoint x="1245" y="70" as="offset" />
          </mxGeometry>
        </mxCell>
        <mxCell id="5H3DimfxdCsXYtSMc6TK-30" value="player" style="edgeLabel;resizable=0;html=1;align=left;verticalAlign=top;strokeColor=default;" vertex="1" connectable="0" parent="5H3DimfxdCsXYtSMc6TK-27">
          <mxGeometry x="430" y="420" as="geometry">
            <mxPoint x="30" y="-16" as="offset" />
          </mxGeometry>
        </mxCell>
        <mxCell id="5H3DimfxdCsXYtSMc6TK-31" value="" style="html=1;rounded=1;edgeStyle=orthogonalEdgeStyle;dashed=0;startArrow=diamondThinstartSize=12;endArrow=openThin;endSize=12;strokeColor=#595959;exitX=0.500;exitY=0.001;exitDx=0;exitDy=0;entryX=0.750;entryY=1.001;entryDx=0;entryDy=0;" edge="1" parent="WIyWlLk6GJQsqaUBKTNV-1" source="5H3DimfxdCsXYtSMc6TK-5" target="5H3DimfxdCsXYtSMc6TK-8">
          <mxGeometry width="50" height="50" relative="1" as="geometry">
            <Array as="points">
              <mxPoint x="364" y="590" />
              <mxPoint x="6" y="590" />
            </Array>
          </mxGeometry>
        </mxCell>
        <mxCell id="5H3DimfxdCsXYtSMc6TK-32" value="1" style="edgeLabel;resizable=0;html=1;align=left;verticalAlign=top;strokeColor=default;" vertex="1" connectable="0" parent="5H3DimfxdCsXYtSMc6TK-31">
          <mxGeometry x="144.5" y="470.5" as="geometry" />
        </mxCell>
        <mxCell id="5H3DimfxdCsXYtSMc6TK-33" value="*" style="edgeLabel;resizable=0;html=1;align=left;verticalAlign=top;strokeColor=default;" vertex="1" connectable="0" parent="5H3DimfxdCsXYtSMc6TK-31">
          <mxGeometry x="-115.5" y="376.5" as="geometry" />
        </mxCell>
        <mxCell id="5H3DimfxdCsXYtSMc6TK-34" value="lp" style="edgeLabel;resizable=0;html=1;align=left;verticalAlign=top;strokeColor=default;" vertex="1" connectable="0" parent="5H3DimfxdCsXYtSMc6TK-31">
          <mxGeometry x="-121.5" y="329.5" as="geometry" />
        </mxCell>
        <mxCell id="5H3DimfxdCsXYtSMc6TK-35" value="" style="html=1;rounded=1;edgeStyle=orthogonalEdgeStyle;dashed=0;startArrow=diamondThinstartSize=12;endArrow=openThin;endSize=12;strokeColor=#595959;exitX=0.000;exitY=0.500;exitDx=0;exitDy=0;" edge="1" parent="WIyWlLk6GJQsqaUBKTNV-1" source="5H3DimfxdCsXYtSMc6TK-5" target="5H3DimfxdCsXYtSMc6TK-9">
          <mxGeometry width="50" height="50" relative="1" as="geometry">
            <Array as="points">
              <mxPoint x="315" y="608" />
              <mxPoint x="79" y="608" />
              <mxPoint x="79" y="350" />
              <mxPoint x="80" y="350" />
              <mxPoint x="80" y="348" />
            </Array>
          </mxGeometry>
        </mxCell>
        <mxCell id="5H3DimfxdCsXYtSMc6TK-36" value="1" style="edgeLabel;resizable=0;html=1;align=left;verticalAlign=top;strokeColor=default;" vertex="1" connectable="0" parent="5H3DimfxdCsXYtSMc6TK-35">
          <mxGeometry x="64" y="598" as="geometry" />
        </mxCell>
        <mxCell id="5H3DimfxdCsXYtSMc6TK-37" value="1" style="edgeLabel;resizable=0;html=1;align=left;verticalAlign=top;strokeColor=default;" vertex="1" connectable="0" parent="5H3DimfxdCsXYtSMc6TK-35">
          <mxGeometry x="64" y="330" as="geometry" />
        </mxCell>
        <mxCell id="5H3DimfxdCsXYtSMc6TK-38" value="server" style="edgeLabel;resizable=0;html=1;align=left;verticalAlign=top;strokeColor=default;" vertex="1" connectable="0" parent="5H3DimfxdCsXYtSMc6TK-35">
          <mxGeometry x="48" y="340" as="geometry" />
        </mxCell>
        <mxCell id="5H3DimfxdCsXYtSMc6TK-39" value="" style="html=1;rounded=1;edgeStyle=orthogonalEdgeStyle;dashed=0;startArrow=diamondThinstartSize=12;endArrow=openThin;endSize=12;strokeColor=#595959;exitX=0.653;exitY=1.001;exitDx=0;exitDy=0;entryX=1;entryY=0.5;entryDx=0;entryDy=0;" edge="1" parent="WIyWlLk6GJQsqaUBKTNV-1" source="5H3DimfxdCsXYtSMc6TK-5" target="5H3DimfxdCsXYtSMc6TK-10">
          <mxGeometry width="50" height="50" relative="1" as="geometry">
            <Array as="points" />
          </mxGeometry>
        </mxCell>
        <mxCell id="5H3DimfxdCsXYtSMc6TK-40" value="1" style="edgeLabel;resizable=0;html=1;align=left;verticalAlign=top;strokeColor=default;" vertex="1" connectable="0" parent="5H3DimfxdCsXYtSMc6TK-39">
          <mxGeometry x="272" y="596" as="geometry" />
        </mxCell>
        <mxCell id="5H3DimfxdCsXYtSMc6TK-41" value="1" style="edgeLabel;resizable=0;html=1;align=left;verticalAlign=top;strokeColor=default;" vertex="1" connectable="0" parent="5H3DimfxdCsXYtSMc6TK-39">
          <mxGeometry x="247" y="627" as="geometry" />
        </mxCell>
        <mxCell id="5H3DimfxdCsXYtSMc6TK-42" value="serverApp" style="edgeLabel;resizable=0;html=1;align=left;verticalAlign=top;strokeColor=default;" vertex="1" connectable="0" parent="5H3DimfxdCsXYtSMc6TK-39">
          <mxGeometry x="253" y="734" as="geometry" />
        </mxCell>
        <mxCell id="5H3DimfxdCsXYtSMc6TK-43" value="" style="html=1;rounded=1;edgeStyle=orthogonalEdgeStyle;dashed=0;startArrow=diamondThinstartSize=12;endArrow=openThin;endSize=12;strokeColor=#595959;exitX=0.644;exitY=0.001;exitDx=0;exitDy=0;entryX=0.000;entryY=0.500;entryDx=0;entryDy=0;" edge="1" parent="WIyWlLk6GJQsqaUBKTNV-1" source="5H3DimfxdCsXYtSMc6TK-6" target="5H3DimfxdCsXYtSMc6TK-1">
          <mxGeometry width="50" height="50" relative="1" as="geometry">
            <Array as="points">
              <mxPoint x="-39" y="62" />
            </Array>
          </mxGeometry>
        </mxCell>
        <mxCell id="5H3DimfxdCsXYtSMc6TK-44" value="1" style="edgeLabel;resizable=0;html=1;align=left;verticalAlign=top;strokeColor=default;" vertex="1" connectable="0" parent="5H3DimfxdCsXYtSMc6TK-43">
          <mxGeometry x="-75.5" y="335.5" as="geometry" />
        </mxCell>
        <mxCell id="5H3DimfxdCsXYtSMc6TK-45" value="1" style="edgeLabel;resizable=0;html=1;align=left;verticalAlign=top;strokeColor=default;" vertex="1" connectable="0" parent="5H3DimfxdCsXYtSMc6TK-43">
          <mxGeometry x="96" y="43" as="geometry" />
        </mxCell>
        <mxCell id="5H3DimfxdCsXYtSMc6TK-46" value="client" style="edgeLabel;resizable=0;html=1;align=left;verticalAlign=top;strokeColor=default;" vertex="1" connectable="0" parent="5H3DimfxdCsXYtSMc6TK-43">
          <mxGeometry x="74" y="65" as="geometry" />
        </mxCell>
        <mxCell id="5H3DimfxdCsXYtSMc6TK-47" value="" style="html=1;rounded=1;edgeStyle=orthogonalEdgeStyle;dashed=0;startArrow=none;endArrow=block;endSize=12;strokeColor=#000082;" edge="1" parent="WIyWlLk6GJQsqaUBKTNV-1" source="5H3DimfxdCsXYtSMc6TK-6" target="5H3DimfxdCsXYtSMc6TK-8">
          <mxGeometry width="50" height="50" relative="1" as="geometry">
            <Array as="points">
              <mxPoint x="-70" y="490" />
              <mxPoint x="-70" y="490" />
            </Array>
          </mxGeometry>
        </mxCell>
        <mxCell id="5H3DimfxdCsXYtSMc6TK-48" value="" style="html=1;rounded=1;edgeStyle=orthogonalEdgeStyle;dashed=0;startArrow=diamondThinstartSize=12;endArrow=openThin;endSize=12;strokeColor=#595959;exitX=0.411;exitY=1.001;exitDx=0;exitDy=0;entryX=0.75;entryY=0;entryDx=0;entryDy=0;" edge="1" parent="WIyWlLk6GJQsqaUBKTNV-1" source="5H3DimfxdCsXYtSMc6TK-7" target="5H3DimfxdCsXYtSMc6TK-5">
          <mxGeometry width="50" height="50" relative="1" as="geometry">
            <Array as="points">
              <mxPoint x="617" y="660" />
              <mxPoint x="389" y="660" />
            </Array>
          </mxGeometry>
        </mxCell>
        <mxCell id="5H3DimfxdCsXYtSMc6TK-49" value="1" style="edgeLabel;resizable=0;html=1;align=left;verticalAlign=top;strokeColor=default;" vertex="1" connectable="0" parent="5H3DimfxdCsXYtSMc6TK-48">
          <mxGeometry x="617" y="598" as="geometry" />
        </mxCell>
        <mxCell id="5H3DimfxdCsXYtSMc6TK-50" value="1" style="edgeLabel;resizable=0;html=1;align=left;verticalAlign=top;strokeColor=default;" vertex="1" connectable="0" parent="5H3DimfxdCsXYtSMc6TK-48">
          <mxGeometry x="383" y="604" as="geometry" />
        </mxCell>
        <mxCell id="5H3DimfxdCsXYtSMc6TK-51" value="lobby" style="edgeLabel;resizable=0;html=1;align=left;verticalAlign=top;strokeColor=default;" vertex="1" connectable="0" parent="5H3DimfxdCsXYtSMc6TK-48">
          <mxGeometry x="380" y="582" as="geometry" />
        </mxCell>
        <mxCell id="5H3DimfxdCsXYtSMc6TK-52" value="" style="html=1;rounded=1;edgeStyle=orthogonalEdgeStyle;dashed=0;startArrow=diamondThinstartSize=12;endArrow=openThin;endSize=12;strokeColor=#595959;exitX=0.500;exitY=1.001;exitDx=0;exitDy=0;" edge="1" parent="WIyWlLk6GJQsqaUBKTNV-1" source="5H3DimfxdCsXYtSMc6TK-7" target="5H3DimfxdCsXYtSMc6TK-10">
          <mxGeometry width="50" height="50" relative="1" as="geometry">
            <Array as="points">
              <mxPoint x="632" y="780" />
              <mxPoint x="50" y="780" />
            </Array>
          </mxGeometry>
        </mxCell>
        <mxCell id="5H3DimfxdCsXYtSMc6TK-53" value="1" style="edgeLabel;resizable=0;html=1;align=left;verticalAlign=top;strokeColor=default;" vertex="1" connectable="0" parent="5H3DimfxdCsXYtSMc6TK-52">
          <mxGeometry x="527" y="770" as="geometry" />
        </mxCell>
        <mxCell id="5H3DimfxdCsXYtSMc6TK-54" value="1" style="edgeLabel;resizable=0;html=1;align=left;verticalAlign=top;strokeColor=default;" vertex="1" connectable="0" parent="5H3DimfxdCsXYtSMc6TK-52">
          <mxGeometry x="243" y="787" as="geometry" />
        </mxCell>
        <mxCell id="5H3DimfxdCsXYtSMc6TK-55" value="serverApp" style="edgeLabel;resizable=0;html=1;align=left;verticalAlign=top;strokeColor=default;" vertex="1" connectable="0" parent="5H3DimfxdCsXYtSMc6TK-52">
          <mxGeometry x="635" y="825" as="geometry" />
        </mxCell>
        <mxCell id="5H3DimfxdCsXYtSMc6TK-56" value="" style="html=1;rounded=1;edgeStyle=orthogonalEdgeStyle;dashed=1;startArrow=none;endArrow=openThin;endSize=12;strokeColor=#595959;exitX=1.000;exitY=0.639;exitDx=0;exitDy=0;entryX=0.428;entryY=1.002;entryDx=0;entryDy=0;" edge="1" parent="WIyWlLk6GJQsqaUBKTNV-1" source="5H3DimfxdCsXYtSMc6TK-10" target="5H3DimfxdCsXYtSMc6TK-4">
          <mxGeometry width="50" height="50" relative="1" as="geometry">
            <Array as="points">
              <mxPoint x="370" y="689" />
            </Array>
          </mxGeometry>
        </mxCell>
        <mxCell id="5H3DimfxdCsXYtSMc6TK-57" value="«create»" style="edgeLabel;resizable=0;html=1;align=left;verticalAlign=top;strokeColor=default;" vertex="1" connectable="0" parent="5H3DimfxdCsXYtSMc6TK-56">
          <mxGeometry x="370" y="580" as="geometry" />
        </mxCell>
        <mxCell id="5H3DimfxdCsXYtSMc6TK-58" value="" style="html=1;rounded=1;edgeStyle=orthogonalEdgeStyle;dashed=1;startArrow=none;endArrow=openThin;endSize=12;strokeColor=#595959;exitX=0.571;exitY=0.001;exitDx=0;exitDy=0;" edge="1" parent="WIyWlLk6GJQsqaUBKTNV-1" source="5H3DimfxdCsXYtSMc6TK-10" target="5H3DimfxdCsXYtSMc6TK-5">
          <mxGeometry width="50" height="50" relative="1" as="geometry">
            <Array as="points" />
          </mxGeometry>
        </mxCell>
        <mxCell id="5H3DimfxdCsXYtSMc6TK-59" value="«create»" style="edgeLabel;resizable=0;html=1;align=left;verticalAlign=top;strokeColor=default;" vertex="1" connectable="0" parent="5H3DimfxdCsXYtSMc6TK-58">
          <mxGeometry x="210" y="715" as="geometry" />
        </mxCell>
        <mxCell id="5H3DimfxdCsXYtSMc6TK-60" value="" style="html=1;rounded=1;edgeStyle=orthogonalEdgeStyle;dashed=0;startArrow=diamondThinstartSize=12;endArrow=openThin;endSize=12;strokeColor=#595959;exitX=0.455;exitY=0.001;exitDx=0;exitDy=0;" edge="1" parent="WIyWlLk6GJQsqaUBKTNV-1" source="5H3DimfxdCsXYtSMc6TK-10" target="5H3DimfxdCsXYtSMc6TK-5">
          <mxGeometry width="50" height="50" relative="1" as="geometry">
            <Array as="points" />
          </mxGeometry>
        </mxCell>
        <mxCell id="5H3DimfxdCsXYtSMc6TK-61" value="1" style="edgeLabel;resizable=0;html=1;align=left;verticalAlign=top;strokeColor=default;" vertex="1" connectable="0" parent="5H3DimfxdCsXYtSMc6TK-60">
          <mxGeometry x="237" y="723" as="geometry" />
        </mxCell>
        <mxCell id="5H3DimfxdCsXYtSMc6TK-62" value="*" style="edgeLabel;resizable=0;html=1;align=left;verticalAlign=top;strokeColor=default;" vertex="1" connectable="0" parent="5H3DimfxdCsXYtSMc6TK-60">
          <mxGeometry x="234" y="675" as="geometry" />
        </mxCell>
        <mxCell id="5H3DimfxdCsXYtSMc6TK-63" value="lobbies" style="edgeLabel;resizable=0;html=1;align=left;verticalAlign=top;strokeColor=default;" vertex="1" connectable="0" parent="5H3DimfxdCsXYtSMc6TK-60">
          <mxGeometry x="269" y="723" as="geometry" />
        </mxCell>
        <mxCell id="5H3DimfxdCsXYtSMc6TK-64" value="" style="html=1;rounded=1;edgeStyle=orthogonalEdgeStyle;dashed=0;startArrow=diamondThinstartSize=12;endArrow=openThin;endSize=12;strokeColor=#595959;exitX=0.500;exitY=1.001;exitDx=0;exitDy=0;entryX=0.25;entryY=0;entryDx=0;entryDy=0;" edge="1" parent="WIyWlLk6GJQsqaUBKTNV-1" source="5H3DimfxdCsXYtSMc6TK-11" target="5H3DimfxdCsXYtSMc6TK-5">
          <mxGeometry width="50" height="50" relative="1" as="geometry">
            <Array as="points">
              <mxPoint x="107" y="640" />
              <mxPoint x="339" y="640" />
            </Array>
          </mxGeometry>
        </mxCell>
        <mxCell id="5H3DimfxdCsXYtSMc6TK-65" value="1" style="edgeLabel;resizable=0;html=1;align=left;verticalAlign=top;strokeColor=default;" vertex="1" connectable="0" parent="5H3DimfxdCsXYtSMc6TK-64">
          <mxGeometry x="107.5" y="403.5" as="geometry" />
        </mxCell>
        <mxCell id="5H3DimfxdCsXYtSMc6TK-66" value="*" style="edgeLabel;resizable=0;html=1;align=left;verticalAlign=top;strokeColor=default;" vertex="1" connectable="0" parent="5H3DimfxdCsXYtSMc6TK-64">
          <mxGeometry x="207" y="620" as="geometry" />
        </mxCell>
        <mxCell id="5H3DimfxdCsXYtSMc6TK-67" value="lobbies" style="edgeLabel;resizable=0;html=1;align=left;verticalAlign=top;strokeColor=default;" vertex="1" connectable="0" parent="5H3DimfxdCsXYtSMc6TK-64">
          <mxGeometry x="153" y="641" as="geometry" />
        </mxCell>
        <mxCell id="5H3DimfxdCsXYtSMc6TK-68" value="" style="html=1;rounded=1;edgeStyle=orthogonalEdgeStyle;dashed=1;startArrow=none;endArrow=openThin;endSize=12;strokeColor=#595959;exitX=0.943;exitY=1.002;exitDx=0;exitDy=0;entryX=0.108;entryY=0.002;entryDx=0;entryDy=0;" edge="1" parent="WIyWlLk6GJQsqaUBKTNV-1" source="5H3DimfxdCsXYtSMc6TK-11" target="5H3DimfxdCsXYtSMc6TK-5">
          <mxGeometry width="50" height="50" relative="1" as="geometry">
            <Array as="points" />
          </mxGeometry>
        </mxCell>
        <mxCell id="5H3DimfxdCsXYtSMc6TK-69" value="«create»" style="edgeLabel;resizable=0;html=1;align=left;verticalAlign=top;strokeColor=default;" vertex="1" connectable="0" parent="5H3DimfxdCsXYtSMc6TK-68">
          <mxGeometry x="149.5" y="486.5" as="geometry" />
        </mxCell>
        <mxCell id="5H3DimfxdCsXYtSMc6TK-70" value="" style="html=1;rounded=1;edgeStyle=orthogonalEdgeStyle;dashed=1;startArrow=none;endArrow=openThin;endSize=12;strokeColor=#595959;exitX=0.000;exitY=0.500;exitDx=0;exitDy=0;entryX=1.000;entryY=0.500;entryDx=0;entryDy=0;" edge="1" parent="WIyWlLk6GJQsqaUBKTNV-1" source="5H3DimfxdCsXYtSMc6TK-11" target="5H3DimfxdCsXYtSMc6TK-6">
          <mxGeometry width="50" height="50" relative="1" as="geometry">
            <Array as="points" />
          </mxGeometry>
        </mxCell>
        <mxCell id="5H3DimfxdCsXYtSMc6TK-71" value="«create»" style="edgeLabel;resizable=0;html=1;align=left;verticalAlign=top;strokeColor=default;" vertex="1" connectable="0" parent="5H3DimfxdCsXYtSMc6TK-70">
          <mxGeometry x="18" y="374" as="geometry" />
        </mxCell>
        <mxCell id="5H3DimfxdCsXYtSMc6TK-72" value="" style="html=1;rounded=1;edgeStyle=orthogonalEdgeStyle;dashed=1;startArrow=none;endArrow=block;endSize=12;strokeColor=#008200;exitX=0.385;exitY=0.002;exitDx=0;exitDy=0;entryX=0.420;entryY=1.002;entryDx=0;entryDy=0;" edge="1" parent="WIyWlLk6GJQsqaUBKTNV-1" source="5H3DimfxdCsXYtSMc6TK-11" target="5H3DimfxdCsXYtSMc6TK-9">
          <mxGeometry width="50" height="50" relative="1" as="geometry">
            <Array as="points" />
          </mxGeometry>
        </mxCell>
        <mxCell id="5H3DimfxdCsXYtSMc6TK-73" value="" style="html=1;rounded=1;edgeStyle=orthogonalEdgeStyle;dashed=0;startArrow=diamondThinstartSize=12;endArrow=openThin;endSize=12;strokeColor=#595959;" edge="1" parent="WIyWlLk6GJQsqaUBKTNV-1" source="5H3DimfxdCsXYtSMc6TK-12" target="5H3DimfxdCsXYtSMc6TK-4">
          <mxGeometry width="50" height="50" relative="1" as="geometry">
            <Array as="points">
              <mxPoint x="430" y="420" />
              <mxPoint x="430" y="420" />
            </Array>
          </mxGeometry>
        </mxCell>
        <mxCell id="5H3DimfxdCsXYtSMc6TK-74" value="1" style="edgeLabel;resizable=0;html=1;align=left;verticalAlign=top;strokeColor=default;" vertex="1" connectable="0" parent="5H3DimfxdCsXYtSMc6TK-73">
          <mxGeometry x="-152" y="822" as="geometry" />
        </mxCell>
        <mxCell id="5H3DimfxdCsXYtSMc6TK-75" value="1" style="edgeLabel;resizable=0;html=1;align=left;verticalAlign=top;strokeColor=default;" vertex="1" connectable="0" parent="5H3DimfxdCsXYtSMc6TK-73">
          <mxGeometry x="-115" y="822" as="geometry" />
        </mxCell>
        <mxCell id="5H3DimfxdCsXYtSMc6TK-76" value="handler" style="edgeLabel;resizable=0;html=1;align=left;verticalAlign=top;strokeColor=default;" vertex="1" connectable="0" parent="5H3DimfxdCsXYtSMc6TK-73">
          <mxGeometry x="437" y="467" as="geometry" />
        </mxCell>
        <mxCell id="5H3DimfxdCsXYtSMc6TK-77" value="" style="html=1;rounded=1;edgeStyle=orthogonalEdgeStyle;dashed=0;startArrow=none;endArrow=block;endSize=12;strokeColor=#000082;" edge="1" parent="WIyWlLk6GJQsqaUBKTNV-1" source="5H3DimfxdCsXYtSMc6TK-12" target="5H3DimfxdCsXYtSMc6TK-8">
          <mxGeometry width="50" height="50" relative="1" as="geometry">
            <Array as="points" />
          </mxGeometry>
        </mxCell>
        <mxCell id="5H3DimfxdCsXYtSMc6TK-81" value="" style="html=1;rounded=1;edgeStyle=orthogonalEdgeStyle;dashed=1;startArrow=none;endArrow=block;endSize=12;strokeColor=#008200;" edge="1" parent="WIyWlLk6GJQsqaUBKTNV-1" source="5H3DimfxdCsXYtSMc6TK-3" target="5H3DimfxdCsXYtSMc6TK-0">
          <mxGeometry width="50" height="50" relative="1" as="geometry">
            <Array as="points" />
            <mxPoint x="470" y="-90" as="sourcePoint" />
            <mxPoint x="670" y="-240" as="targetPoint" />
          </mxGeometry>
        </mxCell>
        <mxCell id="5H3DimfxdCsXYtSMc6TK-86" value="Controller" style="shape=folder;fontStyle=1;spacingTop=10;tabWidth=40;tabHeight=14;tabPosition=left;html=1;whiteSpace=wrap;" vertex="1" parent="WIyWlLk6GJQsqaUBKTNV-1">
          <mxGeometry x="230" y="803" width="228" height="130" as="geometry" />
        </mxCell>
        <mxCell id="5H3DimfxdCsXYtSMc6TK-88" value="" style="html=1;rounded=1;edgeStyle=orthogonalEdgeStyle;dashed=0;startArrow=diamondThinstartSize=12;endArrow=openThin;endSize=12;strokeColor=#595959;entryX=0;entryY=0;entryDx=134;entryDy=14;entryPerimeter=0;" edge="1" parent="WIyWlLk6GJQsqaUBKTNV-1" source="5H3DimfxdCsXYtSMc6TK-5" target="5H3DimfxdCsXYtSMc6TK-86">
          <mxGeometry width="50" height="50" relative="1" as="geometry">
            <Array as="points" />
            <mxPoint x="389" y="760" as="sourcePoint" />
            <mxPoint x="122" y="695" as="targetPoint" />
          </mxGeometry>
        </mxCell>
        <mxCell id="5H3DimfxdCsXYtSMc6TK-89" value="1" style="edgeLabel;resizable=0;html=1;align=left;verticalAlign=top;strokeColor=default;" vertex="1" connectable="0" parent="5H3DimfxdCsXYtSMc6TK-88">
          <mxGeometry x="272" y="596" as="geometry" />
        </mxCell>
        <mxCell id="5H3DimfxdCsXYtSMc6TK-90" value="1" style="edgeLabel;resizable=0;html=1;align=left;verticalAlign=top;strokeColor=default;" vertex="1" connectable="0" parent="5H3DimfxdCsXYtSMc6TK-88">
          <mxGeometry x="247" y="627" as="geometry" />
        </mxCell>
        <mxCell id="5H3DimfxdCsXYtSMc6TK-91" value="serverApp" style="edgeLabel;resizable=0;html=1;align=left;verticalAlign=top;strokeColor=default;" vertex="1" connectable="0" parent="5H3DimfxdCsXYtSMc6TK-88">
          <mxGeometry x="253" y="734" as="geometry" />
        </mxCell>
        <mxCell id="5H3DimfxdCsXYtSMc6TK-92" value="View" style="shape=folder;fontStyle=1;spacingTop=10;tabWidth=40;tabHeight=14;tabPosition=left;html=1;whiteSpace=wrap;" vertex="1" parent="WIyWlLk6GJQsqaUBKTNV-1">
          <mxGeometry x="307.5" y="-410" width="228" height="130" as="geometry" />
        </mxCell>
        <mxCell id="5H3DimfxdCsXYtSMc6TK-93" value="" style="html=1;rounded=1;edgeStyle=orthogonalEdgeStyle;dashed=1;startArrow=none;endArrow=openThin;endSize=12;strokeColor=#595959;exitX=0.863;exitY=0.956;exitDx=0;exitDy=0;exitPerimeter=0;" edge="1" parent="WIyWlLk6GJQsqaUBKTNV-1" source="5H3DimfxdCsXYtSMc6TK-4" target="5H3DimfxdCsXYtSMc6TK-12">
          <mxGeometry width="50" height="50" relative="1" as="geometry">
            <Array as="points">
              <mxPoint x="461" y="421" />
              <mxPoint x="460" y="421" />
            </Array>
            <mxPoint x="631.66" y="306" as="sourcePoint" />
            <mxPoint x="631.66" y="446" as="targetPoint" />
          </mxGeometry>
        </mxCell>
        <mxCell id="5H3DimfxdCsXYtSMc6TK-94" value="«create»" style="edgeLabel;resizable=0;html=1;align=left;verticalAlign=top;strokeColor=default;" vertex="1" connectable="0" parent="5H3DimfxdCsXYtSMc6TK-93">
          <mxGeometry x="144" y="206" as="geometry" />
        </mxCell>
        <mxCell id="5H3DimfxdCsXYtSMc6TK-95" value="" style="html=1;rounded=1;edgeStyle=orthogonalEdgeStyle;dashed=0;startArrow=diamondThinstartSize=12;endArrow=openThin;endSize=12;strokeColor=#595959;" edge="1" parent="WIyWlLk6GJQsqaUBKTNV-1" source="5H3DimfxdCsXYtSMc6TK-0" target="5H3DimfxdCsXYtSMc6TK-92">
          <mxGeometry width="50" height="50" relative="1" as="geometry">
            <Array as="points">
              <mxPoint x="422" y="-170" />
            </Array>
            <mxPoint x="-180" y="-160" as="sourcePoint" />
            <mxPoint x="-180" y="142" as="targetPoint" />
          </mxGeometry>
        </mxCell>
        <mxCell id="5H3DimfxdCsXYtSMc6TK-96" value="1" style="edgeLabel;resizable=0;html=1;align=left;verticalAlign=top;strokeColor=default;" vertex="1" connectable="0" parent="5H3DimfxdCsXYtSMc6TK-95">
          <mxGeometry x="81" y="-75" as="geometry" />
        </mxCell>
        <mxCell id="5H3DimfxdCsXYtSMc6TK-97" value="1" style="edgeLabel;resizable=0;html=1;align=left;verticalAlign=top;strokeColor=default;" vertex="1" connectable="0" parent="5H3DimfxdCsXYtSMc6TK-95">
          <mxGeometry x="160" y="140" as="geometry" />
        </mxCell>
        <mxCell id="5H3DimfxdCsXYtSMc6TK-98" value="server" style="edgeLabel;resizable=0;html=1;align=left;verticalAlign=top;strokeColor=default;" vertex="1" connectable="0" parent="5H3DimfxdCsXYtSMc6TK-95">
          <mxGeometry x="-68" y="86" as="geometry" />
        </mxCell>
        <mxCell id="5H3DimfxdCsXYtSMc6TK-101" value="" style="endArrow=none;html=1;rounded=0;strokeColor=#FF0808;strokeWidth=8;" edge="1" parent="WIyWlLk6GJQsqaUBKTNV-1">
          <mxGeometry width="50" height="50" relative="1" as="geometry">
            <mxPoint x="-230" y="230" as="sourcePoint" />
            <mxPoint x="750" y="230" as="targetPoint" />
          </mxGeometry>
        </mxCell>
        <mxCell id="5H3DimfxdCsXYtSMc6TK-104" value="" style="endArrow=none;html=1;rounded=0;strokeColor=#FF0808;strokeWidth=8;" edge="1" parent="WIyWlLk6GJQsqaUBKTNV-1">
          <mxGeometry width="50" height="50" relative="1" as="geometry">
            <mxPoint x="-230" y="260" as="sourcePoint" />
            <mxPoint x="750" y="260" as="targetPoint" />
          </mxGeometry>
        </mxCell>
        <mxCell id="5H3DimfxdCsXYtSMc6TK-105" value="&lt;font style=&quot;font-size: 24px;&quot;&gt;&lt;b&gt;CLIENT SIDE&lt;/b&gt;&lt;/font&gt;" style="text;html=1;strokeColor=none;fillColor=none;align=center;verticalAlign=middle;whiteSpace=wrap;rounded=0;" vertex="1" parent="WIyWlLk6GJQsqaUBKTNV-1">
          <mxGeometry x="150" y="200" width="248" height="30" as="geometry" />
        </mxCell>
        <mxCell id="5H3DimfxdCsXYtSMc6TK-106" value="&lt;font style=&quot;font-size: 24px;&quot;&gt;&lt;b&gt;SERVER SIDE&lt;/b&gt;&lt;/font&gt;" style="text;html=1;strokeColor=none;fillColor=none;align=center;verticalAlign=middle;whiteSpace=wrap;rounded=0;" vertex="1" parent="WIyWlLk6GJQsqaUBKTNV-1">
          <mxGeometry x="140" y="280" width="248" height="30" as="geometry" />
        </mxCell>
        <mxCell id="5H3DimfxdCsXYtSMc6TK-107" value="ObjectOutputStream&lt;br&gt;ObjectInputStream" style="html=1;rounded=1;edgeStyle=orthogonalEdgeStyle;dashed=0;startArrow=classic;endArrow=classic;endSize=12;strokeColor=#595959;exitX=0.5;exitY=1;exitDx=0;exitDy=0;startFill=1;endFill=1;" edge="1" parent="WIyWlLk6GJQsqaUBKTNV-1" source="5H3DimfxdCsXYtSMc6TK-3" target="5H3DimfxdCsXYtSMc6TK-4">
          <mxGeometry width="50" height="50" relative="1" as="geometry">
            <Array as="points">
              <mxPoint x="431" y="185" />
              <mxPoint x="430" y="290" />
            </Array>
            <mxPoint x="653" y="-39" as="sourcePoint" />
            <mxPoint x="703" y="365" as="targetPoint" />
          </mxGeometry>
        </mxCell>
        <mxCell id="5H3DimfxdCsXYtSMc6TK-108" value="1" style="edgeLabel;resizable=0;html=1;align=left;verticalAlign=top;strokeColor=default;" vertex="1" connectable="0" parent="5H3DimfxdCsXYtSMc6TK-107">
          <mxGeometry x="81" y="-75" as="geometry" />
        </mxCell>
        <mxCell id="5H3DimfxdCsXYtSMc6TK-109" value="1" style="edgeLabel;resizable=0;html=1;align=left;verticalAlign=top;strokeColor=default;" vertex="1" connectable="0" parent="5H3DimfxdCsXYtSMc6TK-107">
          <mxGeometry x="160" y="140" as="geometry" />
        </mxCell>
        <mxCell id="5H3DimfxdCsXYtSMc6TK-110" value="server" style="edgeLabel;resizable=0;html=1;align=left;verticalAlign=top;strokeColor=default;" vertex="1" connectable="0" parent="5H3DimfxdCsXYtSMc6TK-107">
          <mxGeometry x="-68" y="86" as="geometry" />
        </mxCell>
      </root>
    </mxGraphModel>
  </diagram>
</mxfile>
